<svg xmlns="http://www.w3.org/2000/svg" width="1100" height="650" viewBox="0 0 1100 650">
<rect width="100%" height="100%" fill="white"/>
<text x="550" y="36" text-anchor="middle" font-size="28" font-family="Arial" font-weight="bold">Blood Pressure Trend for Patient J</text>
<text x="550" y="60" text-anchor="middle" font-size="14" font-family="Arial" fill="#555">Systolic and Diastolic over time</text>
<line x1="90" y1="560.00" x2="1060" y2="560.00" stroke="#e5e7eb" stroke-width="1"/>
<text x="80" y="565.00" text-anchor="end" font-size="12" font-family="Arial" fill="#444">75</text>
<line x1="90" y1="462.00" x2="1060" y2="462.00" stroke="#e5e7eb" stroke-width="1"/>
<text x="80" y="467.00" text-anchor="end" font-size="12" font-family="Arial" fill="#444">89</text>
<line x1="90" y1="364.00" x2="1060" y2="364.00" stroke="#e5e7eb" stroke-width="1"/>
<text x="80" y="369.00" text-anchor="end" font-size="12" font-family="Arial" fill="#444">102</text>
<line x1="90" y1="266.00" x2="1060" y2="266.00" stroke="#e5e7eb" stroke-width="1"/>
<text x="80" y="271.00" text-anchor="end" font-size="12" font-family="Arial" fill="#444">116</text>
<line x1="90" y1="168.00" x2="1060" y2="168.00" stroke="#e5e7eb" stroke-width="1"/>
<text x="80" y="173.00" text-anchor="end" font-size="12" font-family="Arial" fill="#444">129</text>
<line x1="90" y1="70.00" x2="1060" y2="70.00" stroke="#e5e7eb" stroke-width="1"/>
<text x="80" y="75.00" text-anchor="end" font-size="12" font-family="Arial" fill="#444">143</text>
<line x1="90.00" y1="70" x2="90.00" y2="560" stroke="#f0f0f0" stroke-width="1"/>
<text x="90.00" y="582" text-anchor="end" transform="rotate(-35 90.00,582)" font-size="11" font-family="Arial" fill="#444">10-Mar 10:00 AM</text>
<line x1="166.50" y1="70" x2="166.50" y2="560" stroke="#f0f0f0" stroke-width="1"/>
<text x="166.50" y="582" text-anchor="end" transform="rotate(-35 166.50,582)" font-size="11" font-family="Arial" fill="#444">11-Mar 10:00 PM</text>
<line x1="249.90" y1="70" x2="249.90" y2="560" stroke="#f0f0f0" stroke-width="1"/>
<text x="249.90" y="582" text-anchor="end" transform="rotate(-35 249.90,582)" font-size="11" font-family="Arial" fill="#444">13-Mar 01:15 PM</text>
<line x1="291.54" y1="70" x2="291.54" y2="560" stroke="#f0f0f0" stroke-width="1"/>
<text x="291.54" y="582" text-anchor="end" transform="rotate(-35 291.54,582)" font-size="11" font-family="Arial" fill="#444">14-Mar 08:51 AM</text>
<line x1="1005.28" y1="70" x2="1005.28" y2="560" stroke="#f0f0f0" stroke-width="1"/>
<text x="1005.28" y="582" text-anchor="end" transform="rotate(-35 1005.28,582)" font-size="11" font-family="Arial" fill="#444">28-Mar 08:45 AM</text>
<line x1="1060.00" y1="70" x2="1060.00" y2="560" stroke="#f0f0f0" stroke-width="1"/>
<text x="1060.00" y="582" text-anchor="end" transform="rotate(-35 1060.00,582)" font-size="11" font-family="Arial" fill="#444">29-Mar 10:30 AM</text>
<line x1="90" y1="560" x2="1060" y2="560" stroke="#111" stroke-width="1.5"/>
<line x1="90" y1="70" x2="90" y2="560" stroke="#111" stroke-width="1.5"/>
<polyline points="90.00,106.03 166.50,293.38 249.90,192.50 291.54,149.26 1005.28,206.91 1060.00,221.32" fill="none" stroke="#2563eb" stroke-width="3"/>
<polyline points="90.00,459.12 166.50,487.94 249.90,459.12 291.54,523.97 1005.28,437.50 1060.00,401.47" fill="none" stroke="#dc2626" stroke-width="3"/>
<circle cx="90.00" cy="106.03" r="4" fill="#2563eb"/>
<circle cx="166.50" cy="293.38" r="4" fill="#2563eb"/>
<circle cx="249.90" cy="192.50" r="4" fill="#2563eb"/>
<circle cx="291.54" cy="149.26" r="4" fill="#2563eb"/>
<circle cx="1005.28" cy="206.91" r="4" fill="#2563eb"/>
<circle cx="1060.00" cy="221.32" r="4" fill="#2563eb"/>
<circle cx="90.00" cy="459.12" r="4" fill="#dc2626"/>
<circle cx="166.50" cy="487.94" r="4" fill="#dc2626"/>
<circle cx="249.90" cy="459.12" r="4" fill="#dc2626"/>
<circle cx="291.54" cy="523.97" r="4" fill="#dc2626"/>
<circle cx="1005.28" cy="437.50" r="4" fill="#dc2626"/>
<circle cx="1060.00" cy="401.47" r="4" fill="#dc2626"/>
<text x="575.00" y="632" text-anchor="middle" font-size="14" font-family="Arial">Date / Time</text>
<text x="24" y="315.00" text-anchor="middle" transform="rotate(-90 24,315.00)" font-size="14" font-family="Arial">Blood Pressure (mmHg)</text>
<rect x="880" y="80" width="180" height="54" fill="white" stroke="#ddd"/>
<line x1="892" y1="98" x2="922" y2="98" stroke="#2563eb" stroke-width="3"/>
<text x="930" y="102" font-size="13" font-family="Arial">Systolic</text>
<line x1="892" y1="118" x2="922" y2="118" stroke="#dc2626" stroke-width="3"/>
<text x="930" y="122" font-size="13" font-family="Arial">Diastolic</text>
</svg>