<svg xmlns="http://www.w3.org/2000/svg" width="1100" height="650" viewBox="0 0 1100 650">
<rect width="100%" height="100%" fill="white"/>
<text x="550" y="36" text-anchor="middle" font-size="28" font-family="Arial" font-weight="bold">Blood Pressure Trend for Patient J</text>
<text x="550" y="60" text-anchor="middle" font-size="14" font-family="Arial" fill="#555">Systolic and Diastolic over time</text>
<line x1="90" y1="560.00" x2="1060" y2="560.00" stroke="#e5e7eb" stroke-width="1"/>
<text x="80" y="565.00" text-anchor="end" font-size="12" font-family="Arial" fill="#444">71</text>
<line x1="90" y1="462.00" x2="1060" y2="462.00" stroke="#e5e7eb" stroke-width="1"/>
<text x="80" y="467.00" text-anchor="end" font-size="12" font-family="Arial" fill="#444">85</text>
<line x1="90" y1="364.00" x2="1060" y2="364.00" stroke="#e5e7eb" stroke-width="1"/>
<text x="80" y="369.00" text-anchor="end" font-size="12" font-family="Arial" fill="#444">100</text>
<line x1="90" y1="266.00" x2="1060" y2="266.00" stroke="#e5e7eb" stroke-width="1"/>
<text x="80" y="271.00" text-anchor="end" font-size="12" font-family="Arial" fill="#444">114</text>
<line x1="90" y1="168.00" x2="1060" y2="168.00" stroke="#e5e7eb" stroke-width="1"/>
<text x="80" y="173.00" text-anchor="end" font-size="12" font-family="Arial" fill="#444">129</text>
<line x1="90" y1="70.00" x2="1060" y2="70.00" stroke="#e5e7eb" stroke-width="1"/>
<text x="80" y="75.00" text-anchor="end" font-size="12" font-family="Arial" fill="#444">143</text>
<line x1="90.00" y1="70" x2="90.00" y2="560" stroke="#f0f0f0" stroke-width="1"/>
<text x="90.00" y="582" text-anchor="end" transform="rotate(-35 90.00,582)" font-size="11" font-family="Arial" fill="#444">10-Mar 10:00 AM</text>
<line x1="162.80" y1="70" x2="162.80" y2="560" stroke="#f0f0f0" stroke-width="1"/>
<text x="162.80" y="582" text-anchor="end" transform="rotate(-35 162.80,582)" font-size="11" font-family="Arial" fill="#444">11-Mar 10:00 PM</text>
<line x1="242.16" y1="70" x2="242.16" y2="560" stroke="#f0f0f0" stroke-width="1"/>
<text x="242.16" y="582" text-anchor="end" transform="rotate(-35 242.16,582)" font-size="11" font-family="Arial" fill="#444">13-Mar 01:15 PM</text>
<line x1="281.80" y1="70" x2="281.80" y2="560" stroke="#f0f0f0" stroke-width="1"/>
<text x="281.80" y="582" text-anchor="end" transform="rotate(-35 281.80,582)" font-size="11" font-family="Arial" fill="#444">14-Mar 08:51 AM</text>
<line x1="961.02" y1="70" x2="961.02" y2="560" stroke="#f0f0f0" stroke-width="1"/>
<text x="961.02" y="582" text-anchor="end" transform="rotate(-35 961.02,582)" font-size="11" font-family="Arial" fill="#444">28-Mar 08:45 AM</text>
<line x1="1013.09" y1="70" x2="1013.09" y2="560" stroke="#f0f0f0" stroke-width="1"/>
<text x="1013.09" y="582" text-anchor="end" transform="rotate(-35 1013.09,582)" font-size="11" font-family="Arial" fill="#444">29-Mar 10:30 AM</text>
<line x1="1060.00" y1="70" x2="1060.00" y2="560" stroke="#f0f0f0" stroke-width="1"/>
<text x="1060.00" y="582" text-anchor="end" transform="rotate(-35 1060.00,582)" font-size="11" font-family="Arial" fill="#444">30-Mar 09:42 AM</text>
<line x1="90" y1="560" x2="1060" y2="560" stroke="#111" stroke-width="1.5"/>
<line x1="90" y1="70" x2="90" y2="560" stroke="#111" stroke-width="1.5"/>
<polyline points="90.00,104.03 162.80,280.97 242.16,185.69 281.80,144.86 961.02,199.31 1013.09,212.92 1060.00,315.00" fill="none" stroke="#2563eb" stroke-width="3"/>
<polyline points="90.00,437.50 162.80,464.72 242.16,437.50 281.80,498.75 961.02,417.08 1013.09,383.06 1060.00,525.97" fill="none" stroke="#dc2626" stroke-width="3"/>
<circle cx="90.00" cy="104.03" r="4" fill="#2563eb"/>
<circle cx="162.80" cy="280.97" r="4" fill="#2563eb"/>
<circle cx="242.16" cy="185.69" r="4" fill="#2563eb"/>
<circle cx="281.80" cy="144.86" r="4" fill="#2563eb"/>
<circle cx="961.02" cy="199.31" r="4" fill="#2563eb"/>
<circle cx="1013.09" cy="212.92" r="4" fill="#2563eb"/>
<circle cx="1060.00" cy="315.00" r="4" fill="#2563eb"/>
<circle cx="90.00" cy="437.50" r="4" fill="#dc2626"/>
<circle cx="162.80" cy="464.72" r="4" fill="#dc2626"/>
<circle cx="242.16" cy="437.50" r="4" fill="#dc2626"/>
<circle cx="281.80" cy="498.75" r="4" fill="#dc2626"/>
<circle cx="961.02" cy="417.08" r="4" fill="#dc2626"/>
<circle cx="1013.09" cy="383.06" r="4" fill="#dc2626"/>
<circle cx="1060.00" cy="525.97" r="4" fill="#dc2626"/>
<text x="575.00" y="632" text-anchor="middle" font-size="14" font-family="Arial">Date / Time</text>
<text x="24" y="315.00" text-anchor="middle" transform="rotate(-90 24,315.00)" font-size="14" font-family="Arial">Blood Pressure (mmHg)</text>
<rect x="880" y="80" width="180" height="54" fill="white" stroke="#ddd"/>
<line x1="892" y1="98" x2="922" y2="98" stroke="#2563eb" stroke-width="3"/>
<text x="930" y="102" font-size="13" font-family="Arial">Systolic</text>
<line x1="892" y1="118" x2="922" y2="118" stroke="#dc2626" stroke-width="3"/>
<text x="930" y="122" font-size="13" font-family="Arial">Diastolic</text>
</svg>