<svg xmlns="http://www.w3.org/2000/svg" width="1100" height="650" viewBox="0 0 1100 650">
<rect width="100%" height="100%" fill="white"/>
<text x="550" y="36" text-anchor="middle" font-size="28" font-family="Arial" font-weight="bold">Blood Pressure Trend for Patient J</text>
<text x="550" y="60" text-anchor="middle" font-size="14" font-family="Arial" fill="#555">Systolic and Diastolic over time</text>
<line x1="90" y1="560.00" x2="1060" y2="560.00" stroke="#e5e7eb" stroke-width="1"/>
<text x="80" y="565.00" text-anchor="end" font-size="12" font-family="Arial" fill="#444">63</text>
<line x1="90" y1="462.00" x2="1060" y2="462.00" stroke="#e5e7eb" stroke-width="1"/>
<text x="80" y="467.00" text-anchor="end" font-size="12" font-family="Arial" fill="#444">79</text>
<line x1="90" y1="364.00" x2="1060" y2="364.00" stroke="#e5e7eb" stroke-width="1"/>
<text x="80" y="369.00" text-anchor="end" font-size="12" font-family="Arial" fill="#444">95</text>
<line x1="90" y1="266.00" x2="1060" y2="266.00" stroke="#e5e7eb" stroke-width="1"/>
<text x="80" y="271.00" text-anchor="end" font-size="12" font-family="Arial" fill="#444">111</text>
<line x1="90" y1="168.00" x2="1060" y2="168.00" stroke="#e5e7eb" stroke-width="1"/>
<text x="80" y="173.00" text-anchor="end" font-size="12" font-family="Arial" fill="#444">127</text>
<line x1="90" y1="70.00" x2="1060" y2="70.00" stroke="#e5e7eb" stroke-width="1"/>
<text x="80" y="75.00" text-anchor="end" font-size="12" font-family="Arial" fill="#444">143</text>
<line x1="90.00" y1="70" x2="90.00" y2="560" stroke="#f0f0f0" stroke-width="1"/>
<text x="90.00" y="582" text-anchor="end" transform="rotate(-35 90.00,582)" font-size="11" font-family="Arial" fill="#444">10-Mar 10:00 AM</text>
<line x1="162.03" y1="70" x2="162.03" y2="560" stroke="#f0f0f0" stroke-width="1"/>
<text x="162.03" y="582" text-anchor="end" transform="rotate(-35 162.03,582)" font-size="11" font-family="Arial" fill="#444">11-Mar 10:00 PM</text>
<line x1="240.57" y1="70" x2="240.57" y2="560" stroke="#f0f0f0" stroke-width="1"/>
<text x="240.57" y="582" text-anchor="end" transform="rotate(-35 240.57,582)" font-size="11" font-family="Arial" fill="#444">13-Mar 01:15 PM</text>
<line x1="279.78" y1="70" x2="279.78" y2="560" stroke="#f0f0f0" stroke-width="1"/>
<text x="279.78" y="582" text-anchor="end" transform="rotate(-35 279.78,582)" font-size="11" font-family="Arial" fill="#444">14-Mar 08:51 AM</text>
<line x1="951.89" y1="70" x2="951.89" y2="560" stroke="#f0f0f0" stroke-width="1"/>
<text x="951.89" y="582" text-anchor="end" transform="rotate(-35 951.89,582)" font-size="11" font-family="Arial" fill="#444">28-Mar 08:45 AM</text>
<line x1="1003.41" y1="70" x2="1003.41" y2="560" stroke="#f0f0f0" stroke-width="1"/>
<text x="1003.41" y="582" text-anchor="end" transform="rotate(-35 1003.41,582)" font-size="11" font-family="Arial" fill="#444">29-Mar 10:30 AM</text>
<line x1="1049.83" y1="70" x2="1049.83" y2="560" stroke="#f0f0f0" stroke-width="1"/>
<text x="1049.83" y="582" text-anchor="end" transform="rotate(-35 1049.83,582)" font-size="11" font-family="Arial" fill="#444">30-Mar 09:42 AM</text>
<line x1="1060.00" y1="70" x2="1060.00" y2="560" stroke="#f0f0f0" stroke-width="1"/>
<text x="1060.00" y="582" text-anchor="end" transform="rotate(-35 1060.00,582)" font-size="11" font-family="Arial" fill="#444">30-Mar 02:47 PM</text>
<line x1="90" y1="560" x2="1060" y2="560" stroke="#111" stroke-width="1.5"/>
<line x1="90" y1="70" x2="90" y2="560" stroke="#111" stroke-width="1.5"/>
<polyline points="90.00,100.62 162.03,259.88 240.57,174.12 279.78,137.37 951.89,186.38 1003.41,198.62 1049.83,290.50 1060.00,223.12" fill="none" stroke="#2563eb" stroke-width="3"/>
<polyline points="90.00,400.75 162.03,425.25 240.57,400.75 279.78,455.88 951.89,382.38 1003.41,351.75 1049.83,480.38 1060.00,529.38" fill="none" stroke="#dc2626" stroke-width="3"/>
<circle cx="90.00" cy="100.62" r="4" fill="#2563eb"/>
<circle cx="162.03" cy="259.88" r="4" fill="#2563eb"/>
<circle cx="240.57" cy="174.12" r="4" fill="#2563eb"/>
<circle cx="279.78" cy="137.37" r="4" fill="#2563eb"/>
<circle cx="951.89" cy="186.38" r="4" fill="#2563eb"/>
<circle cx="1003.41" cy="198.62" r="4" fill="#2563eb"/>
<circle cx="1049.83" cy="290.50" r="4" fill="#2563eb"/>
<circle cx="1060.00" cy="223.12" r="4" fill="#2563eb"/>
<circle cx="90.00" cy="400.75" r="4" fill="#dc2626"/>
<circle cx="162.03" cy="425.25" r="4" fill="#dc2626"/>
<circle cx="240.57" cy="400.75" r="4" fill="#dc2626"/>
<circle cx="279.78" cy="455.88" r="4" fill="#dc2626"/>
<circle cx="951.89" cy="382.38" r="4" fill="#dc2626"/>
<circle cx="1003.41" cy="351.75" r="4" fill="#dc2626"/>
<circle cx="1049.83" cy="480.38" r="4" fill="#dc2626"/>
<circle cx="1060.00" cy="529.38" r="4" fill="#dc2626"/>
<text x="575.00" y="632" text-anchor="middle" font-size="14" font-family="Arial">Date / Time</text>
<text x="24" y="315.00" text-anchor="middle" transform="rotate(-90 24,315.00)" font-size="14" font-family="Arial">Blood Pressure (mmHg)</text>
<rect x="880" y="80" width="180" height="54" fill="white" stroke="#ddd"/>
<line x1="892" y1="98" x2="922" y2="98" stroke="#2563eb" stroke-width="3"/>
<text x="930" y="102" font-size="13" font-family="Arial">Systolic</text>
<line x1="892" y1="118" x2="922" y2="118" stroke="#dc2626" stroke-width="3"/>
<text x="930" y="122" font-size="13" font-family="Arial">Diastolic</text>
</svg>